<?xml version="1.0" standalone="no"?>
<!DOCTYPE svg PUBLIC "-//W3C//DTD SVG 20010904//EN"
 "http://www.w3.org/TR/2001/REC-SVG-20010904/DTD/svg10.dtd">
<svg version="1.0" xmlns="http://www.w3.org/2000/svg"
 width="276.000000pt" height="249.000000pt" viewBox="0 0 276.000000 249.000000"
 preserveAspectRatio="xMidYMid meet">

<g transform="translate(0.000000,249.000000) scale(0.100000,-0.100000)"
fill="#ea1d2c" stroke="none">
<path d="M1356 1678 l-79 -61 -152 -22 c-84 -12 -158 -26 -165 -30 -15 -10 10
-34 116 -110 78 -56 79 -56 95 -36 23 28 43 26 66 -4 17 -23 21 -24 50 -13 44
16 67 -3 58 -48 -5 -28 -3 -33 17 -36 20 -3 23 -8 21 -45 l-2 -42 112 -80 c62
-44 139 -100 172 -125 51 -39 67 -46 105 -46 29 0 54 7 70 20 22 17 25 26 23
77 -1 38 3 63 12 73 13 14 11 21 -11 54 -26 38 -33 92 -19 155 10 48 -20 100
-71 121 -45 20 -49 27 -60 104 -9 62 -41 98 -81 92 -122 -19 -109 -21 -139 23
-15 23 -34 41 -43 40 -9 0 -52 -28 -95 -61z m112 -2 c10 -22 8 -24 -20 -30
-17 -3 -40 -6 -51 -6 -19 0 -19 2 8 30 35 36 48 38 63 6z m206 -58 c20 -93 96
-611 90 -617 -2 -2 -50 30 -106 71 -262 190 -238 169 -238 210 0 26 -7 44 -20
55 -11 10 -20 27 -20 39 0 32 -55 76 -85 68 -16 -4 -34 2 -55 17 -30 23 -31
23 -64 5 l-34 -18 -56 41 c-31 23 -56 45 -56 49 0 9 539 100 597 101 36 1 43
-2 47 -21z m114 -184 c16 -11 22 -25 22 -54 0 -42 -8 -70 -20 -70 -15 0 -38
48 -45 93 -8 52 2 60 43 31z m43 -241 c12 -22 11 -27 -11 -43 -14 -11 -29 -15
-33 -11 -10 10 -26 119 -18 127 6 6 42 -36 62 -73z m2 -115 c6 -22 -8 -58 -23
-58 -11 0 -23 56 -15 70 11 17 32 11 38 -12z"/>
<path d="M530 790 l0 -160 855 0 855 0 0 160 0 160 -855 0 -855 0 0 -160z
m396 71 c12 -25 34 -51 49 -59 26 -13 27 -16 11 -27 -16 -12 -16 -16 -2 -50 9
-20 13 -41 10 -46 -11 -19 -26 -7 -45 37 -18 39 -24 45 -42 40 -12 -3 -31 -6
-42 -6 -14 0 -25 -13 -38 -42 -11 -27 -21 -38 -27 -32 -6 6 3 44 25 109 20 55
38 106 40 113 9 26 40 7 61 -37z m667 31 c9 -10 22 -32 28 -49 6 -20 19 -33
35 -37 28 -7 31 -21 8 -34 -15 -8 -15 -12 0 -40 9 -17 16 -38 16 -47 0 -30
-27 -14 -48 30 -22 45 -23 46 -60 39 -45 -8 -44 -8 -58 -47 -12 -36 -34 -48
-34 -18 0 33 73 221 85 221 7 0 19 -8 28 -18z m-875 -14 c3 -14 -3 -16 -32
-11 -46 7 -80 -15 -96 -61 -27 -83 51 -125 140 -75 41 23 62 21 41 -5 -19 -22
-93 -56 -124 -56 -81 0 -118 70 -83 154 21 50 62 78 110 74 29 -2 42 -8 44
-20z m451 11 c32 -11 41 -38 19 -56 -7 -6 -34 -18 -60 -28 -26 -10 -45 -22
-42 -27 3 -4 37 -24 75 -43 39 -20 69 -42 69 -50 0 -26 -35 -16 -94 25 -31 22
-61 40 -66 40 -6 0 -10 -15 -10 -33 0 -40 -8 -51 -27 -36 -18 16 -19 213 0
206 6 -2 21 -1 32 4 29 11 68 11 104 -2z m226 1 c47 -11 65 -32 65 -78 0 -27
-8 -42 -35 -67 -39 -37 -111 -75 -143 -75 -21 0 -22 4 -22 109 l0 110 33 4
c56 7 61 7 102 -3z m474 -18 c46 -23 48 -34 13 -73 -22 -25 -42 -35 -88 -44
-59 -11 -59 -12 -62 -49 -3 -29 -7 -36 -20 -34 -15 3 -17 16 -14 88 3 109 16
125 107 129 17 0 45 -7 64 -17z m326 -12 c27 -22 37 -73 23 -116 -18 -54 -67
-79 -129 -65 -25 6 -51 20 -61 33 -40 52 -8 150 54 166 36 9 90 1 113 -18z
m-205 -91 c0 -76 -3 -100 -12 -97 -9 3 -14 35 -16 101 -2 82 0 97 13 97 12 0
15 -17 15 -101z m-50 -84 c0 -8 -7 -15 -15 -15 -8 0 -15 7 -15 15 0 8 7 15 15
15 8 0 15 -7 15 -15z"/>
<path d="M875 821 c-19 -38 -17 -42 13 -34 23 6 28 28 13 52 -7 11 -13 6 -26
-18z"/>
<path d="M1561 835 c-22 -57 -22 -57 2 -49 31 9 31 10 20 46 l-10 33 -12 -30z"/>
<path d="M1053 845 c-3 -9 -3 -18 0 -22 9 -9 71 6 93 22 17 13 15 14 -34 15
-38 0 -54 -4 -59 -15z"/>
<path d="M1303 853 c-16 -6 -18 -143 -3 -143 47 0 129 65 130 102 0 35 -79 61
-127 41z"/>
<path d="M1746 835 c-41 -41 -7 -65 62 -43 35 10 47 19 47 33 0 17 -8 21 -46
23 -33 2 -51 -2 -63 -13z"/>
<path d="M2082 844 c-7 -3 -19 -18 -27 -34 -38 -74 50 -133 119 -79 29 22 35
64 14 92 -13 17 -83 31 -106 21z"/>
</g>
</svg>
